# xmcd
#
# Track frame offsets: 
#        150
#        18488
#        40540
#        59548
#        78535
#        92843
#        110675
#        135155
#        147273
#        169165
#
# Disc length: 2541 seconds
#
# Revision: 0
# Processed by: cddbd v1.5PL3 Copyright (c) Steve Scherf et al.
# Submitted via: ExactAudioCopy v0.95a4
#
DISCID=8009eb0a
DTITLE=Well Well Well - Camp 2000
DYEAR=1991
DGENRE=Rock
TTITLE0=Deaf 'n' Blind
TTITLE1=Creep On
TTITLE2=Lost And Found
TTITLE3=Alright
TTITLE4=Down
TTITLE5=My War, Honey
TTITLE6=Receiver
TTITLE7=The Big Nothing
TTITLE8=Little Memorial To A T-34
TTITLE9=Party Is Over
EXTD=
EXTT0=
EXTT1=
EXTT2=
EXTT3=
EXTT4=
EXTT5=
EXTT6=
EXTT7=
EXTT8=
EXTT9=
PLAYORDER=
